<?xml version="1.0" encoding="utf-8"?>
<!-- Generator: Adobe Illustrator 26.0.3, SVG Export Plug-In . SVG Version: 6.00 Build 0)  -->
<svg version="1.0" id="katman_1" xmlns="http://www.w3.org/2000/svg" xmlns:xlink="http://www.w3.org/1999/xlink" x="0px" y="0px"
	 viewBox="0 0 600 450" style="enable-background:new 0 0 600 450;" xml:space="preserve">
<style type="text/css">
	.st0{clip-path:url(#SVGID_00000080903724292685940880000003047511407837770915_);}
	.st1{fill:url(#SVGID_00000073697132159965869020000004895093904615036806_);}
	.st2{fill:#FFFFFF;}
	.st3{opacity:0.8;}
	
		.st4{fill:none;stroke:url(#SVGID_00000103987867438057629980000011754064844358727568_);stroke-width:2.4837;stroke-miterlimit:10;}
	
		.st5{fill:none;stroke:url(#SVGID_00000176730839764149675910000011282905983126115260_);stroke-width:2.4837;stroke-miterlimit:10;}
	
		.st6{fill:none;stroke:url(#SVGID_00000065063283613831023840000004160248399367528124_);stroke-width:2.3284;stroke-miterlimit:10;}
	
		.st7{fill:none;stroke:url(#SVGID_00000121273860808541156300000016965526612062102172_);stroke-width:2.1732;stroke-miterlimit:10;}
	.st8{fill:none;stroke:url(#SVGID_00000053530877333895474170000001909047955891932843_);stroke-width:2.018;stroke-miterlimit:10;}
	.st9{fill:none;stroke:url(#SVGID_00000121278449069733353080000004107108899831404160_);stroke-width:2.018;stroke-miterlimit:10;}
</style>
<g>
	<defs>
		<path id="SVGID_1_" d="M300,53L300,53c99.1,0,179.5,80.4,179.5,179.5l0,0c0,99.1-80.4,179.5-179.5,179.5l0,0
			c-99.1,0-179.5-80.4-179.5-179.5l0,0C120.5,133.3,200.9,53,300,53z"/>
	</defs>
	<clipPath id="SVGID_00000002357268605968124350000004291442655584670626_">
		<use xlink:href="#SVGID_1_"  style="overflow:visible;"/>
	</clipPath>
	<g style="clip-path:url(#SVGID_00000002357268605968124350000004291442655584670626_);">
		
			<radialGradient id="SVGID_00000132063831439716062970000009483639081358719656_" cx="2.9395" cy="454.2076" r="2.4424" gradientTransform="matrix(0 82.5756 82.5756 0 -37206.4648 8.5645)" gradientUnits="userSpaceOnUse">
			<stop  offset="0.1667" style="stop-color:#073183"/>
			<stop  offset="1" style="stop-color:#0054F9"/>
		</radialGradient>
		<path style="fill:url(#SVGID_00000132063831439716062970000009483639081358719656_);" d="M300,53L300,53
			c99.1,0,179.5,80.4,179.5,179.5l0,0c0,99.1-80.4,179.5-179.5,179.5l0,0c-99.1,0-179.5-80.4-179.5-179.5l0,0
			C120.5,133.3,200.9,53,300,53z"/>
		<g>
			<path class="st2" d="M422.1,176.4c-0.8,4.4-1.6,6.5-2.7,9l0,0c-1.1,2.7-2.4,5.7-3.5,11.7c-0.5,2.4-0.7,4.2-0.9,5.7l0,0.1l0,0.1
				c-0.3,2.5-0.5,4.2-1.5,7.2c-0.8,2.4-2.2,6.5-5.5,10.9c-2.7,3.6-7.2,9.5-13.1,10.2c-0.5,0-1.6,0.1-2-0.1
				c-17-8.7-31.5-15.1-36.6-16.5c-5.9-1.7-5.1-14.4-4.5-25.7c0.3-5,0.6-9.8,0.3-13.9c-0.8-14.2-3.3-29.8-15.7-37.4
				c-7.4-4.5-17-5.9-26.1-5.9c1.7-0.8,3.6-1.9,5.6-3.1l0.1,0c5.4-3.1,12-7,18.7-7.7c2.2-0.2,4.3-0.5,6.4-0.7
				c13.4-1.5,24.9-2.8,37.1,1.4c5.5,1.9,16.8,8.2,19.8,14.1c2.1,4.1,5.5,7.4,12.5,13.8c3.6,3.4,6,5.3,7.7,6.7l0.1,0.1
				c2.4,2,2.9,2.4,3.6,3.9C424,164.9,423.2,169.7,422.1,176.4z"/>
			<path class="st2" d="M360,234.9c1,0.3,1.3,1.5,0.8,2.4c-1.8,2.7-3.8,6.4-6.2,10.8c-1.2,2.2-2.3,4.2-3.2,5.8
				c-3.3,5.6-3.6,10.4-3.8,14.2c-0.2,4-0.4,5.8-2.8,7.4c-2,1.3-4,1.8-17.9,3.9c-2.4,0.4-3.5,0.8-4.5,1.3c-0.2,0.1-0.3,0.1-0.5,0.2
				c-1,0.4-1.9-0.4-1.9-1.5c0.1-1.9,0.2-4.3,0.2-7.3v-0.6c0.1-2.7,0-5-0.1-6.7c-0.2-3.6-0.2-5.1,0.7-6.6c1.2-1.9,2.1-2.4,3.6-3.4
				c2.1-1.3,5-3.1,9.2-8.9c2.3-3.1,2.8-4.8,3.1-6.2c0.1-0.6,0.2-0.8,1.9-2.1c1.8-1.4,7.4-5.6,14.6-4.4
				C355.1,233.3,357.5,234,360,234.9L360,234.9z"/>
			<path class="st2" d="M304.8,299.4c-0.3,0.4-0.7,0.6-1.2,0.6c-1.5,0.1-2.5-0.3-3.2-1.1c-1.4-1.8-1.2-5.3-0.9-7.3l5.9-1.6
				C306,293.1,306.2,297.6,304.8,299.4z"/>
			<path class="st2" d="M305.3,278.1c-0.1,0.9-0.2,1.8-0.2,2.8c0,0.4,0,0.8,0,1.1c0,1,0,2.5-0.1,3.2c-1.8,0.7-3.4,0.7-5.5,0.6
				c0-0.6,0-1.5,0-2.1c0-0.5,0-0.9,0-1.4c0-0.5,0-1,0-1.5c0-1.1,0-3,0.3-3.5c0.6-0.1,1.1-0.2,1.7-0.3c1.2-0.3,2.8-0.6,3.8-0.4
				C305.4,277,305.4,277.6,305.3,278.1z"/>
			<path class="st2" d="M294.4,297.5c-0.3,3-1.2,6.8-4.1,7.3c-1.3,0.3-1.9-0.1-2.3-0.5c-1.9-1.8-2.2-7.1-2-11c1.3,0,2.9-0.3,4.9-0.6
				c1.2-0.2,2.4-0.5,3.4-0.7C294.5,293.5,294.6,295.5,294.4,297.5z"/>
			<path class="st2" d="M293.1,286.7l-6.4,2.2c0.3-2.5,0.8-6,0.9-8.3c0.1-1.6,0.6-2.1,0.7-2.2c0,0,0.1-0.1,0.4-0.1c0,0,0.1,0,0.1,0
				l0.1,0l4-0.2C293.1,280,293.1,284.1,293.1,286.7z"/>
			<path class="st2" d="M282.7,284.7c-0.4,1-0.8,3.7-1.1,5.6l-8-0.2c0.5-2.5,1.1-5,1.8-7c0.7-2,1.4-3.5,2.1-3.9
				c0.8-0.5,2.6-0.6,3.7,0.3C283,280.9,283.5,282.7,282.7,284.7z"/>
			<path class="st2" d="M279.7,309.2c-0.6,0.8-1.3,1.3-2.2,1.4c-0.9,0.1-1.6-0.1-2.1-0.6c-2.5-2.3-2.3-9.9-2.2-13.6
				c3.3-0.8,6.9-1.4,8.6-1.5C282.1,298,282.2,305.9,279.7,309.2z"/>
			<path class="st2" d="M269.2,289.8c-0.4,1-0.8,2-1.1,2.9c-0.9,0.3-3.8,0-6.7-0.6l2-12.6c3.3-0.9,7.1-1.2,8-0.2
				C272.7,280.6,270.3,287.1,269.2,289.8z"/>
			<path class="st2" d="M265.6,311.2c-1.6,1.9-3.9,2.8-7.1,2.8c-2.3,0-3.1-0.9-3.5-1.5c-1.8-2.9,0-9.6,1.7-13.9l10.9,0.7
				c0.1,0.8,0.2,1.7,0.2,2.7C268,304.9,267.6,308.7,265.6,311.2z"/>
			<path class="st2" d="M355.4,219.5c-9.8-2.8-8.9-17.1-8.1-30.9c0.3-4.9,0.6-9.5,0.3-13.3c-0.8-12.9-2.9-27-13.3-33.4
				c-11.2-6.8-29.5-5.3-40.8-3.8c0,0,0,0,0,0c0,0,0,0,0,0c-4.1,1.3-8,2.1-11,1.9c-6.7-0.3-11.9-3.2-16.4-5.6
				c-3.6-1.9-6.7-3.6-9.6-3.6c-0.2,0-0.3,0-0.5,0c-8.8,0.6-12.8,2.7-16.4,6c-0.9,0.8-2,3.2-5.7,13.8c-1.9,5.3-2.2,8.3-2.5,11.1
				c-0.3,2.6-0.6,5.3-2,9.3c-1,2.7-1.7,5.1-2.4,7.4c-1.8,6.1-3.2,10.9-7.5,16.6c-0.5,0.7-1.1,1.7-1.9,2.8c-1,1.5-2.2,3.4-3.8,5.7
				c-1.1,1.6-3.7,7.4-3.6,9.2c0.2,2.8,1.1,4.6,2.2,6.6c1,2,2.2,4.3,2.5,7.5l0,0.5c0.4,5-0.3,7.5-9.9,16
				c-6.1,5.5-10.4,10.7-13.3,14.6c-0.3,0.3,0.1,0.8,0.5,0.8c0.1,0,0.2,0,0.3,0c0.2,0,0.4,0,0.5,0c0.2,0,0.4,0,0.5,0
				c0.2,0,0.4,0,0.5,0c2.3,0.3,4.6,1.2,6.2,2.9c0.3,0.3,0.7,0.4,1.1,0.2c1.6-0.6,3.3-0.5,4.9-0.4c1.9,0.2,3.9,0.7,5.2,1.9
				c0.5,0.5,1.2,0.7,1.9,0.6c1.5-0.3,3.1-0.3,4.6,0.3c1.1,0.4,2,1,2.8,1.8c0.7,0.7,1.9,0.9,2.8,0.4c0.4-0.2,0.7-0.4,1.2-0.5
				c2.1-0.7,4.4-0.3,6.4,0.4c1,0.4,2,0.7,2.9,1.3c1.5,1,2.4,2.4,3.1,3.9c0.5,1.2,2.1,1.6,3.2,0.9c1.3-0.9,2.3-1,3.4-0.6
				c0.4,0.2,0.8,0.4,1,0.7c0.8,0.9,2,1.7,3.1,1.5c3.1-0.7,6.9-0.2,9.7,1.2c1,0.5,2,1.4,2.8,2.6c0,0,0,0,0,0c0,0,0,0,0,0l0.1-0.6
				c0-0.2,0.2-0.5,0.5-0.5l0.7-0.2c1.6-0.5,9.7-2.8,12.8,0.5c0.1,0.1,0.4,0.1,0.5,0c0.4-0.5,0.8-0.7,1-0.9c2-1.2,5.6-1.3,7.9,0.7
				c0.5,0.4,1.2,0.3,1.6-0.3c0.2-0.3,0.5-0.6,0.7-0.8c0.8-0.7,1.9-1,3-1l4.4-0.2c1.1-0.1,4.6-0.3,5.7-0.5c0.1,0,0.2,0,0.3,0
				c0.5-0.1,1-0.2,1.6-0.3c2.2-0.5,4.6-1,6.6-0.1c1.9,0.9,1.7,3.1,1.5,5c-0.1,0.8-0.2,1.6-0.2,2.4c0,0.4,0,0.7,0,1.1
				c0,1.7,0.1,3.2-0.3,4.4c0,0,0,0,0,0c0,0,0,0,0,0l0.2,0.9c0.2,0.9,1.2,1.4,2,0.9c1.5-0.9,3-2.1,3.5-2.8c0-0.1,0.1-0.1,0.1-0.2
				c0.1-0.2,0.2-0.6,0.3-1.4c0.3-1.6,0.6-5,0.6-11.8c0-0.4,0-0.6,0-0.7c0.1-2.5,0-4.6-0.1-6.3c-0.2-3.7-0.3-6.6,1.5-9.6
				c1.8-2.9,3.5-4,5.2-5c1.9-1.2,4.1-2.6,7.8-7.6c1.8-2.5,2-3.5,2.2-4.3c0.4-1.9,1-3,3.8-5.1c2.3-1.7,9.2-6.9,18.5-5.4
				c3.1,0.5,8,2.1,12.9,4.1c0,0,0,0,0,0s0,0,0,0c0.2,0.1,0.4,0.1,0.5,0.2c0.1,0,0.2,0.1,0.2,0.1c4.2,1.7,8.3,3.6,11,5.1
				c0.8,0.4,1.8,0.2,2.3-0.5c0.8-1,1.8-1.6,2.7-2.2c0.4-0.2,0.7-0.4,1-0.7c0.9-0.8,0.9-2.4-0.2-3
				C371.6,224.4,359.5,220.7,355.4,219.5L355.4,219.5z M262.2,222.6c-3,13.2-23.5,27.8-32.9,27.8h-0.2c-0.1,0-0.3,0-0.5,0
				c-0.2,0-0.4-0.1-0.6-0.1c-0.1,0-0.2-0.1-0.3-0.1c-1.7-0.5-4-1.8-5.8-3.6c-1.2-1.2-2.2-2.6-2.5-4.1c-0.1-0.3-0.1-0.5-0.2-0.8
				c-0.5-2.3-1.1-5.1,0.9-9.7c0.3-0.6,0.5-1.2,0.7-1.7c0.1-0.2,0.1-0.4,0.2-0.5c0.2-0.5,0.4-1,0.6-1.4c0.3-0.7,0.5-1.3,0.7-1.8
				c0.1-0.2,0.1-0.4,0.2-0.6c0.6-1.6,0.6-2.2,0.7-2.8c0.1-0.5,0.1-1.1,0.3-1.9c0.6-2.5,0.9-4.6,1.2-6.5c0.5-3.4,0.9-6.3,2.7-9
				c0.3-0.5,0.7-0.9,1-1.2c0.1-0.1,0.3-0.2,0.4-0.4c0.1-0.1,0.3-0.2,0.4-0.3c0.4-0.3,0.9-0.6,1.4-0.8c0.2-0.1,0.4-0.2,0.5-0.2
				c0.4-0.1,0.7-0.2,1.1-0.3c1.7-0.4,3.6-0.5,5.9-0.2c2.5,0.2,4.8,0.7,6.8,1.2c1.7,0.5,3.2,1,4.5,1.5c0.1,0,0.3,0.1,0.4,0.2
				c0.2,0.1,0.5,0.2,0.7,0.3c0.4,0.1,0.7,0.3,1,0.4c0.4,0.2,0.8,0.3,1.1,0.5l0.3,0.1c1.4,0.7,2.7,1.4,3.7,2.1c0.5,0.4,1,0.8,1.4,1.2
				c0.1,0.1,0.3,0.3,0.4,0.4c0.1,0.1,0.3,0.3,0.4,0.4C263.1,214.8,262.9,219.6,262.2,222.6z M271.7,172.4l-0.4,2.4
				c-0.9,5.4-3,12.8-10.8,14.7c-7.5,1.8-9.3,2.2-14.6,2.5c-0.1,0-0.2,0-0.4,0c-3.9,0-11.4-2.5-12.7-8.6c-0.8-3.9,0.9-6.8,3.7-11.5
				c0.5-0.8,1-1.6,1.5-2.5c3.8-6.4,5.3-11,6.5-14.7c1.2-3.6,2.1-6.6,4.6-9.1c0.6-0.6,1.2-1.1,2-1.6c0.5-0.3,1-0.6,1.5-0.9
				c0.7-0.4,1.5-0.7,2.2-0.9c1.7-0.6,3.6-0.8,5.5-0.8c3.6,0,7.3,1,9.9,3.1c1.2,0.9,2.8,2.8,3.8,8.3
				C274.5,155.6,273.7,160.8,271.7,172.4z M327.3,187.8c-2.7,4.6-4.1,7.1-6.5,9c-4.6,3.8-10,4.7-14.4,4.7c-3.2,0-5.9-0.5-7.5-0.8
				c-4.6-0.8-13.1-2.4-15.9-9.1c-0.6-1.3-0.6-2.2-0.6-3.2c0-1.1,0-2.8-0.5-7l0-0.3c-0.2-1.9-0.5-4.1,0.1-6.8l0.1-0.3
				c1.6-8.1,2-9.4,2.4-10.1c0.8-1.6,2.8-2.2,4.4-1.4c1.6,0.8,2.2,2.7,1.5,4.3c-0.2,0.5-0.6,2.2-1.9,8.5l-0.1,0.3
				c-0.4,1.8-0.2,3.1,0,4.8l0,0.3c0.5,4.6,0.5,6.7,0.5,7.8c0,0.2,0,0.4,0,0.5c0,0,0,0.1,0,0.2c0.5,1.1,1.5,2,2.7,2.7
				c1.1,0.6,2.2-0.5,2-1.7c-1.3-7.1-1.2-15.2,1.5-20.2c0.9-1.7,2.6-4.5,4.1-7.1c0,0,0,0,0,0c0,0,0,0,0,0c0.2-0.3,0.3-0.5,0.5-0.8
				c0.1-0.2,0.3-0.4,0.4-0.7c0.7-1.2,1.3-2.2,1.9-3.1c0.1-0.1,0.1-0.2,0.2-0.4c0-0.1,0.1-0.2,0.1-0.2c0.1-0.2,0.2-0.4,0.3-0.5
				c0-0.1,0.1-0.1,0.1-0.2c0,0,0-0.1,0-0.1c0-0.1,0.1-0.2,0.1-0.2c0.1-0.1,0.1-0.2,0.2-0.3c0,0,0,0,0,0c0,0,0,0,0,0c0,0,0,0,0,0
				c0.4-0.6,0.8-1.1,1.2-1.6c0.9-1.2-0.1-2.7-1.5-2.1c-2.3,1-3.8,2.2-4.1,2.5c-1.4,1.1-3.5,0.9-4.6-0.5c-1.1-1.4-0.9-3.5,0.5-4.6
				c1.7-1.3,10.6-7.8,21.2-4.8c7.7,2.2,11.7,8,13.2,10.2c1.2,1.8,5,7.2,4.8,14.8C334.1,176,331.7,180.2,327.3,187.8L327.3,187.8z"/>
			<path class="st2" d="M258.1,148.1c-0.5,1.3-1.2,3-1.9,4.7c-1.6,4.1-3.5,8.8-4.4,10.5c-1.5,2.9-2.7,4.8-3.7,6.2
				c-1.1,1.7-2,3.1-2.6,4.9c-1.2,3.3-1.4,7-0.6,11c-2-0.2-5.4-1.6-5.8-3.4c-0.3-1.3,0.5-2.8,2.9-6.7c0.5-0.8,1-1.7,1.6-2.6
				c4.1-7,5.8-12.2,7.1-16c1.3-4.1,2-5.9,4.1-7.3C255.8,148.7,256.9,148.3,258.1,148.1z"/>
			<path class="st2" d="M254.1,294.5c-2.3,4.6-5.1,8.9-6.8,11c-1.5-3.9-4-12.9-3.3-20.2c0-0.2,0-0.4,0.1-0.6
				c0.3-2.2,0.9-4.3,1.9-5.9c0.7-1.1,2.6-1.7,4.8-1.7c1.6,0,3.4,0.4,4.9,1.2h0c0.8,0.4,1.9,1.3,2,3.9
				C257.9,285.6,256.2,290.2,254.1,294.5z"/>
			<path class="st2" d="M377.9,242.8c0.2,0.1,0.3,0.4,0.2,0.6c-0.7,1.4-1.5,2.3-2.4,3.4c-1.2,1.4-2.5,2.9-3.7,5.4
				c-1.7,3.4-2.3,6.6-2.6,14.6c-0.3,9.4,0,14.7,0.3,18.6c0.3,3.7,0.4,6-0.2,9.6c-1.3,7.3-4.5,12.2-8.5,18.4
				c-5,7.7-10.1,15.7-18.7,18.2c-0.8,0.2-0.8,0.2-3,0.3c-1.9,0-5.2,0-11.3,0.2c-11.1,0.4-16.7,0.6-21.5,1.5c-5,1-7.6,2-10.2,3.1
				c-2.3,0.9-4.5,1.8-8.6,2.7c-2.5,0.5-6.2,1-18.8,1.1c-13.1,0-21,0-31.4-1.2c-14.3-1.6-21.5-2.5-26.3-5c-11.3-6-16-16.8-23.9-34.7
				c0,0,0-0.1,0-0.1c-0.1-0.2,0.2-0.4,0.4-0.3c0.4,0.2,0.8,0.4,1.2,0.6c0.3,0.1,0.7,0.2,1.1,0.3c0.7,0.1,1.5,0.1,2.2,0
				c0.1,0,0.3-0.1,0.4-0.1c0,0,0,0,0.1,0c0.1-0.1,0.3,0,0.4,0.1c0.5,1.4,1.3,2.6,2.6,3.3c1.3,0.7,2.9,0.8,4.3,0.7
				c1.5,0,3.1-0.1,4.6-0.3c0.8-0.1,1.6,0.3,1.9,1.1c1.4,3.4,3.1,5.8,5.7,6.2c0.1,0,0.3,0,0.6,0c0.5,0,1.3-0.1,2.3-0.7
				c1.3-0.7,3.1-0.3,4.1,0.8c0.6,0.6,1.2,1.2,1.7,1.6c2.7,2.8,9.2,4.1,14.7,4.1c3,0,5.7-0.4,7.2-1.2c2.3-1.1,2.3-2.8,2.1-3.4
				c-0.2-1.2-0.4-2.4-0.5-3.6c0-0.1,0.2-0.2,0.3-0.1c0.3,0.7,0.7,1.6,1.8,1.8c0.1,0,0.2,0,0.4,0c1.5,0,3.9,0.5,4.3,2
				c0.2,0.7,0.5,1.4,0.9,2.1c0.9,1.4,2.8,3.2,6.5,3.2h0.3c4.2,0,7.5-1.4,9.7-4.1c0.1-0.2,0.3-0.4,0.4-0.5c0.8-1.1,3.2-1.2,4.2-0.2
				c1.1,1.1,2.6,1.6,4.2,1.6c0.3,0,0.5,0,0.8,0c1.9-0.2,3.5-1.2,4.8-2.9c0.8-1.1,1.4-2.5,1.8-4c0.1-0.4,0.7-0.6,1.1-0.3
				c0.8,0.7,2.1,1.5,4,1.5c0.5,0,1,0,1.5-0.2c3.7-0.7,5.5-3.8,6.4-7.2c0-0.1,0.2-0.1,0.3-0.1c0.9,1.1,2.7,2.4,5.7,2.4
				c0.2,0,0.3,0,0.5,0c1.6-0.1,2.9-0.8,3.9-2c1.1-1.5,1.6-3.6,1.7-5.8c0-0.8,0.6-1.5,1.3-1.8c3.1-1.4,6.8-4.1,7.9-6c0,0,0,0,0,0
				c0.3-0.6,0.9-1.1,1.5-1.2c2.3-0.5,3.4-0.9,4.3-1.3c0.8-0.3,1.4-0.6,3.2-0.9c14.2-2.2,16.9-2.6,20-4.7c4.6-3.1,4.8-7.3,5-11.3
				c0.2-3.4,0.4-7.3,3.1-11.9c1-1.7,2.1-3.8,3.3-6c2-3.8,4.9-9,6.9-11.9c0.5-0.7,1.3-0.9,2.1-0.5C373,240.1,377,242.1,377.9,242.8
				L377.9,242.8z"/>
			<path class="st2" d="M240.4,284.9c-0.6,4.9-0.9,11.4-0.1,20c0.2,2.4,0.5,4.9,0.9,7.4c-0.7,0.4-2.7,0.9-6.2,0.8
				c-5.1-0.1-10.1-1.4-11.6-3l-0.2-0.2c-1.2-1-2.1-1.7-2.2-3.4c0-0.6,0.2-1.2,0.8-2c0.3-0.5,0.7-1,1.2-1.7c0.9-1.2,1.9-2.6,3-4.5
				c3.2-5.4,4.4-7.1,6-9.2c0.1-0.2,0.3-0.3,0.4-0.5c0.9-1.2,2-2.7,3.6-5.2c1.2-1.8,2.2-3.2,3-4.4c1.4-1.9,2.3-2.9,2.8-3.4
				c-0.1,0.8-0.3,2-0.5,3.1C241,280.4,240.6,282.5,240.4,284.9L240.4,284.9z"/>
			<path class="st2" d="M238,208.8c0,0-0.1,0.1-0.1,0.1c-0.7,0.9-1.4,2-2.3,4c-2.4,5.4-2.5,8.5-2.5,11c0,1.3,0,2.3-0.4,3.5
				c-0.2,0.8-0.6,1.7-1.1,2.8c-1.4,3.3-3.3,7.6-2.5,13.4c-1.2-0.6-2.9-1.8-3.2-2.5c-0.1-0.3-0.1-0.6-0.2-0.9c-0.4-1.8-0.7-3,0.5-5.7
				c3-7,3.4-8.7,3.6-10.6c0-0.4,0.1-0.7,0.2-1.3c0.6-2.8,1-5.1,1.3-7c0.4-2.9,0.7-4.8,1.7-6.2c0.4-0.5,1.4-0.8,2.8-0.8
				c0.6,0,1.2,0,1.9,0.1l0.2,0C237.9,208.8,237.9,208.8,238,208.8z"/>
			<path class="st2" d="M234,277.8c-0.2-1.7-0.5-3.4-1.1-4.9c0-0.1-0.2-0.5-0.3-0.6c-0.1-0.2-0.2-0.4-0.4-0.6c0,0,0,0,0,0
				c0,0,0,0,0,0c-0.1-0.1-0.1-0.1-0.2-0.2c-0.1-0.1-0.2-0.2-0.3-0.3c0,0,0,0-0.1,0c0,0-0.1-0.1-0.2-0.1c-0.1-0.1-0.3-0.1-0.4-0.2
				c0,0-0.1-0.1-0.2-0.1c0,0,0,0,0,0c0,0,0,0-0.1,0c0,0,0,0,0,0c0,0,0,0,0,0c0,0,0,0,0,0c0,0-0.1,0-0.1,0c-1-0.4-2-0.8-3-0.9
				c0,0,0,0,0,0h0c-0.1,0-0.4,0-0.4,0c-0.1,0-0.3,0-0.4,0c-0.1,0-0.1,0-0.2,0h-0.1c0,0-0.1,0-0.1,0c0,0,0,0,0,0c0,0,0,0,0,0
				c-0.2,0.1-0.5,0.1-0.7,0.2c-0.1,0-0.2,0.1-0.3,0.2c-0.1,0-0.2,0.1-0.3,0.2c0,0,0,0,0,0l0,0c-0.1,0.1-0.2,0.2-0.3,0.3
				c0,0-0.1,0.2-0.2,0.3c0,0,0,0,0,0c0,0,0,0,0,0c0,0,0,0,0,0c0,0,0,0,0,0c0,0.1-0.1,0.1-0.1,0.1c-0.4,0.6-0.8,1.2-1.2,1.8
				c-0.9,1.4-1.9,2.9-2.9,4.3c-0.9,1.3-1.8,2.6-2.7,3.9c-0.5,0.7-1,1.4-1.5,2.2c-0.1,0.1-0.2,0.2-0.2,0.4c0.6,0.1,1.2,0.2,1.7,0.3
				c1.3,0.2,2.6,0.5,3.9,0.7c2.7,0.4,5.5,0.5,8.3,0.4c0.1,0,0.3,0,0.4,0c0.7-1,1.5-2.1,2.5-3.6c0.6-0.8,1.1-1.6,1.6-2.4
				C234.2,278.7,234.1,278.3,234,277.8L234,277.8z"/>
			<path class="st2" d="M224.2,289.2c-0.2,2.1-2.6,7.6-6.3,12.8c-3.1,4.4-5,5.4-5.3,5.4c-1.5-0.2-3-3.9-4.1-7.5
				c-0.5-1.5-0.9-3-1.2-4.2c-0.8-2.8-0.9-6.5-0.8-8.9c3.1,1.7,8.6,2.2,16.3,2.2h0C223.2,289.1,223.7,289.1,224.2,289.2z"/>
			<path class="st2" d="M218.8,271.8L218.8,271.8c0,0.1-0.1,0.1-0.1,0.2c-1.3,1.9-2.6,3.9-4,5.8c-0.7,1-1.4,2-2.1,3
				c-0.4,0.5-0.9,1.1-1.3,1.8c-1.1-0.3-2.2-0.5-3.3-0.8c-0.9-0.3-1.8-0.5-2.6-0.9c-0.2-0.1-0.3-0.1-0.5-0.2
				c-0.1-0.3-0.3-0.5-0.6-0.7c0,0,0,0,0,0c0.3-0.6,0.6-1.3,0.9-1.9c0.6-1.2,1.2-2.3,1.8-3.4c1.2-2,2.6-4.1,4.6-5.4
				c0.1-0.1,0.2-0.1,0.3-0.2c0.8-0.5,1.5-0.8,2.5-0.9c0.1,0,0.8,0,1.1,0c0.1,0,0.1,0,0.1,0h0c0,0,0.1,0,0.1,0
				c0.2,0.1,0.5,0.1,0.7,0.2c0.1,0,0.2,0.1,0.2,0.1c0.2,0.1,0.4,0.2,0.6,0.4c-0.3-0.2,0.4,0.5,0.4,0.5
				C218.4,270,218.6,270.7,218.8,271.8z"/>
			<path class="st2" d="M208.3,266.2c-2.4,2-4.2,4.7-5.7,7.5c-0.8,1.5-1.6,3.1-2.4,4.7c-0.1,0.2-0.2,0.3-0.3,0.5
				c-0.7-0.2-1.5-0.4-2.2-0.6c-0.8-0.2-1.5-0.5-2.3-0.9c-0.3-0.2-0.7-0.3-1-0.5c0.7-1.4,1.6-2.7,2.4-4c1.2-1.8,2.4-3.6,3.8-5.3
				c0.5-0.6,1.1-1.3,1.8-1.8c0.7-0.4,1.6-0.3,2.5-0.3c0.9,0.1,1.9,0.1,2.7,0.4C208,266,208.2,266.2,208.3,266.2z"/>
			<path class="st2" d="M204.5,299c-0.1,0.1-0.2,0.2-0.3,0.3c-0.1,0-0.2,0-0.2,0.1c-0.6,0.1-1.2,0.1-1.8,0.1
				c-1.1,0.1-2.3,0.1-3.4,0.1c-0.6,0-1.2-0.1-1.5-0.5c-0.4-0.6-0.5-1.8-0.7-2.6c-0.8-4.2-0.8-8.5-0.3-12.7c2.2,0.8,4.4,1.4,6.7,1.8
				c-0.5,3.8,0.3,9.4,0.8,11.1C204,297.4,204.2,298.2,204.5,299z"/>
			<path class="st2" d="M197.4,264.9c-1.9,2.4-3.7,4.9-5.3,7.5c-0.6,1.1-1.4,2.2-1.9,3.3c-0.8-0.2-1.5-0.5-2.2-1
				c-0.6-0.3-1.1-0.7-1.6-1.1c-0.1-0.1-0.5-0.4-0.7-0.6c-0.1,0-0.1-0.1-0.2-0.1c0.2-0.5,0.5-1.1,0.7-1.4c0.4-0.9,0.9-1.8,1.3-2.6
				c0.9-1.6,1.9-3.1,3-4.6c0.4-0.5,0.8-1.2,1.5-1.4c0.6-0.2,1.4-0.1,1.9,0C195.4,263.1,196.5,263.8,197.4,264.9L197.4,264.9z"/>
			<path class="st2" d="M182.6,275.2c0-0.1,0.2-0.1,0.3,0c0.5,0.7,1.2,1.3,1.9,1.9c0.3,0.3,0.7,0.5,1,0.7c0.1,0,0.1,0.1,0.1,0.2
				c-0.8,3.2-1.3,6.6-1.3,10c0,0.2-0.3,0.2-0.3,0C183.2,284,182,277.6,182.6,275.2z"/>
			<path class="st2" d="M192,282.3c-0.4,2.9-0.6,5.8-0.5,8.7c0.1,1.6,0.2,3.2,0.4,4.7c0,0,0,0,0,0v0c-0.3-0.1-0.7-0.1-1.1,0
				c0.1,0-0.1,0-0.2,0h0c-0.1,0-0.1,0-0.2,0c-0.4-0.1-0.4-0.1-0.8-0.3c-0.4-0.3-0.9-0.8-1.1-1.3c-0.8-1.3-0.9-3-1-4.5
				c-0.1-3,0.1-6,0.7-8.9c0.5,0.2,0.9,0.4,1.6,0.7C190.6,281.7,191.3,282,192,282.3L192,282.3L192,282.3z"/>
		</g>
		<g class="st3">
			
				<linearGradient id="SVGID_00000148643920077548810350000017959105964799355579_" gradientUnits="userSpaceOnUse" x1="216.1482" y1="364.6457" x2="627.5656" y2="-67.1587" gradientTransform="matrix(1 0 0 -1 -120.9449 377.3622)">
				<stop  offset="0.2057" style="stop-color:#89D0FF"/>
				<stop  offset="0.3984" style="stop-color:#EBBF9A"/>
				<stop  offset="0.6015" style="stop-color:#EB8280"/>
				<stop  offset="0.8411" style="stop-color:#A281FF"/>
			</linearGradient>
			
				<path style="fill:none;stroke:url(#SVGID_00000148643920077548810350000017959105964799355579_);stroke-width:2.4837;stroke-miterlimit:10;" d="
				M268.2,433.1c-13.1,0-25.6-0.8-36.1-1.6l-2.9-0.2l-2.9-0.4c-1.3-0.2-3-0.4-4.6-0.5c-10.1-1.1-28.8-3.1-49.5-12.8l-3.2-1.5l-3-1.7
				c-39.7-22.3-54.6-55.8-62.6-73.8c-0.5-1.1-1.1-2.5-1.7-3.8c-4-8.3-6.6-15.7-8.8-22.5l-0.5-1.5l-0.4-1.5
				c-5.8-20.5-7.2-38.2-4.6-55.7c2.6-17.6,9.2-33.6,20.5-50.3l5.9-9.6c1.2-1.9,2-4.1,2.5-6.3c4.5-22.2,14.6-37.8,19.6-45.3
				c1.4-9.1,3.6-18,6.8-26.6l0.5-1.3l0.5-1.3c0.1-0.2,0.2-0.5,0.4-1.1c2.2-6.7,7.5-22.5,20.9-39.1l5-6.1l5.1-4.6
				c13.2-12,29-20.9,46.1-26c9.5-2.8,19.4-4.6,29.3-5.2l1-0.1l1.4-0.1c1.7-0.1,3.4-0.1,5.1-0.1c6.2,0,12.4,0.5,18.5,1.6
				c3.8,0.6,7.7,0.2,11.3-1.3c10.6-4.4,21.8-7.4,33.1-8.9c1-0.1,1.8-0.2,2.4-0.3c1.8-0.2,4.7-0.6,8.1-0.9c6-0.6,15.2-1.3,25.2-1.3
				c19.5,0,36.4,2.5,51.4,7.7l1.3,0.4l1.3,0.5C444,42.4,460.9,60,473.1,75.4l0.6,0.7l1.7,1.5c11,8.6,20.3,19.1,27.6,31l2.3,3.7
				l1.9,3.9c16.2,33.2,11.1,63.8,9.1,75.3l-0.1,0.6c-1.4,8.5-3.6,16.8-6.6,24.9c-1.1,7.8-2.9,15.4-5.5,22.8
				c-4.3,13.2-10.7,25.6-18.9,36.9c-4.7,6.7-10,12.9-15.9,18.6c-2.1,2-3.4,4.6-3.8,7.5c-0.3,1.8-0.5,3.5-0.9,5.2
				c-4.8,25.6-15.9,43.3-20.5,50.4l-13.8,19.8C413.7,399,394,412.6,370.2,420l-5.8,1.8l-6.2,1.1c-7.1,1.3-14.4,1.9-21.6,1.9
				c-1,0-2,0-3.1,0h-0.3l-1.2,0.1l-1.3,0h0c-2.8,0.1-5.5,0.5-8.1,1.3C306.9,430.9,289.5,433.1,268.2,433.1L268.2,433.1z"/>
			
				<linearGradient id="SVGID_00000051349817298732700540000007937772956239704218_" gradientUnits="userSpaceOnUse" x1="232.2134" y1="346.1604" x2="611.4919" y2="-53.5423" gradientTransform="matrix(1 0 0 -1 -120.9449 377.3622)">
				<stop  offset="0.2057" style="stop-color:#89D0FF"/>
				<stop  offset="0.3984" style="stop-color:#EBBF9A"/>
				<stop  offset="0.6015" style="stop-color:#EB80DA"/>
				<stop  offset="0.8411" style="stop-color:#A281FF"/>
			</linearGradient>
			
				<path style="fill:none;stroke:url(#SVGID_00000051349817298732700540000007937772956239704218_);stroke-width:2.4837;stroke-miterlimit:10;" d="
				M268.2,419.5c-12.6,0-24.7-0.8-34.8-1.6l-2.4-0.2l-2.4-0.3c-1.5-0.2-3.3-0.4-5.1-0.6c-9.8-1.1-26.1-2.8-44.4-11.4l-2.7-1.3
				l-2.5-1.4c-35.1-19.7-48-48.9-55.8-66.3c-0.6-1.2-1.2-2.8-1.9-4.2c-3.6-7.4-6-14.2-8-20.5l-0.4-1.3l-0.3-1.2
				c-5.1-18.2-6.5-33.8-4.2-48.9c2.3-15.2,8-29.2,18.1-44L129,204c1.3-2.2,2.2-4.6,2.7-7.1c3.7-20.8,13.6-35.6,18.1-42.3l0.6-0.9
				l0.2-0.3c0.1-0.2,0.2-0.4,0.3-0.6c0.3-0.9,0.5-1.7,0.8-2.6c1.2-8.5,3.3-16.9,6.2-25.1l0.4-1.1l0.4-1.1c0.1-0.3,0.3-0.7,0.6-1.9
				c2.1-6.4,6.6-19.7,18.2-34l4.2-5.1l4.3-3.9C197.4,67.7,211,60,225.8,55.6c8.4-2.5,17.1-4,25.9-4.5l0.8-0.1l1.2-0.1
				c1.5-0.1,2.9-0.1,4.3-0.1c6.3,0,12.6-1.8,18.7-0.6c4.8,1,9.7,0.5,14.1-1.5c8.3-3.7,19.5-5.1,32.3-6.7c0.9-0.1,1.7-0.2,2.3-0.3
				c1.7-0.2,4.4-0.5,7.6-0.8c5.7-0.5,14.4-1.2,23.7-1.2c17.7,0,32.8,2.2,46.2,6.9l1.1,0.4l1,0.4c29.4,11.1,44,26,55.3,40.5
				c0.6,0.8,1.3,1.6,1.5,1.9l0.3,0.2l2.1,1.9l0.3,0.3c9.8,7.5,18.1,16.8,24.5,27.3l1.9,3.1l1.6,3.3c14,28.5,9.6,54.5,7.7,65.6
				l-0.1,0.6c-1.3,8.1-3.5,15.9-6.5,23.5c-0.9,7.4-2.6,14.7-5,21.7c-3.8,11.7-9.4,22.7-16.7,32.6c-4.9,7-10.6,13.4-16.9,19.1
				c-2.9,2.6-4.8,6.3-5.2,10.2c-0.3,2.9-0.7,5.7-1.2,8.5c-4.2,22.6-14,38.2-18.5,45.1L419.1,369c-14.8,19.1-32.4,31.5-53.7,38.1
				l-4.8,1.5l-5.2,0.9c-6.2,1.1-12.5,1.6-18.9,1.6c-0.9,0-1.9,0-2.9,0h-0.3h-0.6c0,0-0.2,0-0.6,0l-1.1,0.1l-1.1,0l-2.2,0.1
				c-2.9,0.1-5.8,0.6-8.6,1.5C304.9,417.4,288.5,419.5,268.2,419.5L268.2,419.5z"/>
			
				<linearGradient id="SVGID_00000011739281949442286870000009875528718310787999_" gradientUnits="userSpaceOnUse" x1="248.3485" y1="330.1234" x2="595.4847" y2="-37.4704" gradientTransform="matrix(1 0 0 -1 -120.9449 377.3622)">
				<stop  offset="0.2057" style="stop-color:#89D0FF"/>
				<stop  offset="0.3984" style="stop-color:#EBBF9A"/>
				<stop  offset="0.6015" style="stop-color:#EB8280"/>
				<stop  offset="0.8411" style="stop-color:#A281FF"/>
			</linearGradient>
			
				<path style="fill:none;stroke:url(#SVGID_00000011739281949442286870000009875528718310787999_);stroke-width:2.3284;stroke-miterlimit:10;" d="
				M268.2,403.5c-12,0-23.7-0.8-33.6-1.5l-1.9-0.1l-1.9-0.3c-1.7-0.2-3.7-0.5-5.6-0.7c-9.3-1-23.5-2.6-39.3-10l-2.1-1l-2-1.1
				c-30.4-17-41.6-42.2-48.9-58.8c-0.6-1.4-1.3-3-2-4.5c-3.2-6.5-5.4-12.8-7.2-18.5l-0.3-1l-0.3-1c-4.5-16-5.7-29.4-3.7-42.2
				c2-13,7.1-25.1,16.1-38.2l1.1-1.5l1.2-1.5c0.7-0.9,1.4-1.8,2.1-2.7l4.5-8.3c1.5-2.7,2.5-5.7,3-8.7c2.9-18.6,11.8-32,16-38.2l0,0
				c0.2-0.4,0.5-0.8,0.7-1.1l0.9-1.4c0.3-0.8,0.8-1.8,1.2-2.8c0.4-1.3,0.9-2.8,1.4-4.4c1-7.9,2.9-15.7,5.6-23.2l0.3-0.9l0.3-0.9
				c0.3-0.7,0.5-1.4,0.9-2.6c2-5.9,5.6-17,15.4-29l3.4-4.1l3.4-3.1c9.7-8.8,21.2-15.3,33.8-19.1c7.3-2.2,14.8-3.5,22.4-3.9l0.6,0
				l1,0c1.2-0.1,2.4-0.1,3.6-0.1c6.5,0,13,0.8,19.3,2.5c5.5,1.4,11.2,0.8,16.3-1.7c8.1-3.9,18.9-8.1,31.6-9.7
				c0.9-0.1,1.6-0.2,2.2-0.3c1.6-0.2,4.1-0.5,7.1-0.8c5.3-0.5,13.5-1.1,22.2-1.1c15.9,0,29.3,2,40.9,6l0.9,0.3l0.8,0.3
				c27,10.2,39.2,23.6,48.4,35.4c2,2.6,2.3,3,3.7,4.2l1.7,1.5l0.7,0.7c4.5,3.4,13.5,10.5,21.5,23.7l1.5,2.5l1.3,2.6
				c11.7,23.9,8.1,45.5,6.3,55.8l-0.1,0.6c-1.3,7.6-3.4,15-6.3,22.2l-0.1,0.7c-0.8,6.8-2.3,13.5-4.5,20
				c-3.3,10.2-8.2,19.7-14.5,28.4c-5.3,7.6-11.6,14.3-18.8,20c-1.7,1.4-3.1,3.1-4.1,5c-1,1.9-1.6,4.1-1.7,6.3
				c-0.2,4.3-0.7,8.6-1.5,12.8c-3.6,19.6-12.2,33.1-16.5,39.9l-8.7,12.8c-13.1,17.4-28.5,28.7-47.2,34.4l-3.8,1.2l-4.2,0.7
				c-5.3,0.9-10.7,1.4-16.1,1.4c-0.8,0-1.7,0-2.6,0h-0.2h-0.9c-0.2,0-0.6,0-1.6,0.1l-0.9,0.1l-0.9,0l-4.5,0.2
				c-3.1,0.1-6.2,0.7-9.2,1.7C302.8,401.4,287.5,403.5,268.2,403.5L268.2,403.5z"/>
			
				<linearGradient id="SVGID_00000125572822737177159880000015791521118429133978_" gradientUnits="userSpaceOnUse" x1="264.4745" y1="314.0358" x2="579.3969" y2="-21.354" gradientTransform="matrix(1 0 0 -1 -120.9449 377.3622)">
				<stop  offset="0.2057" style="stop-color:#89D0FF"/>
				<stop  offset="0.3984" style="stop-color:#EBBF9A"/>
				<stop  offset="0.6015" style="stop-color:#EB80E7"/>
				<stop  offset="0.8411" style="stop-color:#A281FF"/>
			</linearGradient>
			
				<path style="fill:none;stroke:url(#SVGID_00000125572822737177159880000015791521118429133978_);stroke-width:2.1732;stroke-miterlimit:10;" d="
				M268.2,387.4c-11.5,0-22.8-0.8-32.4-1.5l-1.4-0.1l-1.4-0.2c-2-0.3-4-0.5-6.1-0.7c-8.8-1-20.8-2.3-34.2-8.6l-1.6-0.8l-1.5-0.8
				c-25.7-14.4-35.2-35.8-42.1-51.3c-0.7-1.6-1.5-3.3-2.2-4.9c-2.9-5.9-4.8-11.6-6.4-16.4l-0.2-0.8l-0.2-0.7
				c-7.5-26.8-4.7-45.5,10.1-66.9l0.8-1.2l0.9-1.1c1-1.3,1.9-2.5,2.8-3.6c1.4-1.8,2.7-3.6,4.2-5.5c0.9-1.2,1.7-2.5,2.2-3.9l1.7-4.3
				c0.7-1.8,1.2-3.8,1.3-5.7c1.5-17.2,9.8-29.7,14-35.9l0,0c0.3-0.5,0.8-1.1,0.9-1.4l1-1.5l0.3-0.4c0.5-1,1.5-3.2,2.4-5.5
				c0.5-1.6,1.2-4,2-6.2c0-0.1,0-0.2,0-0.3c0.8-7.2,2.4-14.3,4.9-21.1l0.2-0.7l0.3-0.7c0.4-1.1,0.8-2.1,1.2-3.4
				c1.8-5.3,4.7-14.2,12.6-23.9l2.5-3.1l2.5-2.3c18.7-17,39.6-18.4,46.6-18.9l0.5,0l0.7,0c1,0,1.9-0.1,2.8-0.1
				c8.3,0,16.5,1.7,24.1,4.9c1.4,0.6,2.8,0.8,4.3,0.7c1.5-0.1,2.9-0.5,4.2-1.2h0c7.1-4.1,20.1-11.6,36.7-13.6
				c0.8-0.1,1.5-0.2,2.1-0.3c1.5-0.2,3.8-0.5,6.7-0.7c5-0.5,12.6-1,20.7-1c14.1,0,25.8,1.7,35.7,5.1l0.6,0.2l0.6,0.2
				c23.2,8.8,33.2,19.7,41.4,30.3c2.2,2.8,3.2,4.1,5.7,6.3l1.3,1.2l1,1.1l0.8,0.6c3.9,3,11.2,8.7,17.7,19.4l1.1,1.9l1,2
				c9.4,19.3,6.5,36.7,4.9,46.1l-0.1,0.6c-1.1,6.8-3.1,13.5-5.8,19.8l-0.2,0.5c0,0.1-0.1,0.3-0.1,0.5c-0.1,0.6-0.2,1.2-0.3,1.8
				l-0.1,0.7c-0.6,5.8-1.9,11.4-3.8,16.9c-2.8,8.6-7,16.8-12.3,24.1c-5.3,7.5-11.2,13.6-17.9,18.5c-2.9,2.1-5.3,4.9-7,8.1
				c-1.7,3.2-2.6,6.8-2.6,10.4c-0.1,4.5-0.5,9-1.3,13.5c-3.1,16.6-10.1,27.8-14.5,34.6l-6.3,9.4c-11.3,15.7-24.6,25.8-40.6,30.7
				l-0.8,0.3c-1.4,0.4-2.7,0.8-4.1,1l-1,0.2c-4.4,0.8-8.9,1.2-13.4,1.2c-0.8,0-1.5,0-2.4,0H334c-0.4,0-0.8,0-1.3,0
				c-0.3,0-1.1,0-2.6,0.1l-0.7,0l-0.6,0c-2.1,0.1-4.8,0.2-7.2,0.3c-3.3,0.1-6.5,0.8-9.6,1.9C300.6,385.5,286.5,387.4,268.2,387.4
				L268.2,387.4z"/>
			<g>
				
					<linearGradient id="SVGID_00000045592462593814353650000002387501819317440912_" gradientUnits="userSpaceOnUse" x1="280.5702" y1="297.9779" x2="563.3373" y2="-5.1796" gradientTransform="matrix(1 0 0 -1 -120.9449 377.3622)">
					<stop  offset="0.2057" style="stop-color:#89D0FF"/>
					<stop  offset="0.3984" style="stop-color:#EBBF9A"/>
					<stop  offset="0.6015" style="stop-color:#EB80D3"/>
					<stop  offset="0.8411" style="stop-color:#A281FF"/>
				</linearGradient>
				
					<path style="fill:none;stroke:url(#SVGID_00000045592462593814353650000002387501819317440912_);stroke-width:2.018;stroke-miterlimit:10;" d="
					M268.2,371.4c-11,0-21.9-0.7-31.1-1.5l-1-0.1l-1-0.1c-2.2-0.3-4.4-0.5-6.5-0.8c-8.1-0.9-18.1-2-29.1-7.1l-1.1-0.5l-1-0.6
					c-21.1-11.8-29-29.6-35.3-43.8c-0.8-1.8-1.6-3.6-2.4-5.3c-2.5-5-4.2-10-5.5-14.4l-0.2-0.5l-0.1-0.5c-6.2-22.1-4.2-36.1,7.8-53.5
					l0.5-0.8l0.6-0.7c1-1.3,2-2.6,2.9-3.8c3.1-4.1,6.1-8.1,10.7-12.9c1-1.1,1.6-2.4,1.7-3.9l0.3-5.2l-0.1-1.7l0.1-1.8
					c0.5-14.2,7.6-25,11.5-30.7c0.4-0.7,0.9-1.4,1.2-1.8l0.6-1l0.6-0.8c0.7-1.2,2.6-5.1,4-9c0.5-1.6,1.4-4.7,2.3-7.1
					c0.2-0.8,0.3-1,0.5-2.6c0.7-6,2-11.9,4.1-17.6l0.2-0.4l0.2-0.4c0.6-1.5,1-2.8,1.5-4.2c1.5-4.6,3.8-11.4,9.9-18.9l1.7-2l1.7-1.5
					c13.1-11.9,27.4-14.1,37-14.8l0.3,0h0.5c0.7,0,1.4,0,2.1,0c8.2,0,18.1,3.9,23.2,6.3c1.2,0.6,2.6,0.9,3.9,0.9
					c1.4,0,2.7-0.2,4-0.6c3.2-1.2,6.3-2.5,9.4-4.1c6.6-3.8,17.5-10.1,31-11.7c0.7-0.1,1.4-0.2,2-0.3c1.4-0.2,3.5-0.4,6.2-0.7
					c4.6-0.4,11.7-1,19.1-1c12.3,0,22.2,1.4,30.4,4.2l0.4,0.1l0.4,0.2c19.4,7.3,27.1,15.7,34.5,25.2c2.4,3,4.1,5.2,7.6,8.4l0.9,0.8
					l0.8,0.8c0.7,0.7,1.5,1.4,2.3,2c3.3,2.6,8.9,6.9,13.8,15l0.8,1.2l0.6,1.3c7.2,14.6,4.9,28.2,3.5,36.4l-0.1,0.6
					c-0.9,5.6-2.5,11.1-4.8,16.3v0c-0.6,1.4-1.1,2.8-1.3,4.3c-0.2,1-0.3,1.9-0.4,2.8l-0.1,0.7c-0.5,4.7-1.5,9.3-3.1,13.8
					c-2.3,7.1-5.7,13.9-10.1,19.9c-6.5,9.3-14.1,15.9-23.2,20.1c-2.2,1-4.1,2.6-5.5,4.6c-1.4,2-2.1,4.4-2.2,6.8c0,1-0.1,1.8,0,2.3
					c0.4,7,1,15-0.6,23.2c-2.5,13.6-8.2,22.7-12.6,29.3c0,0-19.8,27.5-37.8,33l-1.9,0.6l-2.1,0.4c-3.5,0.6-7.1,0.9-10.6,0.9
					c-0.7,0-1.4,0-2.1,0h-0.1c-0.5,0-1,0-1.6,0c-0.7,0-1.9,0-3.6,0.1l-0.4,0h-0.4c-6.9,0.2-13.4,0.5-15.2,0.8
					c-1,0.2-1.9,0.4-2.8,0.8C300,369.3,286.7,371.4,268.2,371.4L268.2,371.4z"/>
				
					<linearGradient id="SVGID_00000091699708692983001320000013715504116273656202_" gradientUnits="userSpaceOnUse" x1="296.7168" y1="281.9718" x2="547.3085" y2="10.9232" gradientTransform="matrix(1 0 0 -1 -120.9449 377.3622)">
					<stop  offset="0.2057" style="stop-color:#89D0FF"/>
					<stop  offset="0.3984" style="stop-color:#EBBF9A"/>
					<stop  offset="0.6015" style="stop-color:#A280EB"/>
					<stop  offset="0.8411" style="stop-color:#A281FF"/>
				</linearGradient>
				
					<path style="fill:none;stroke:url(#SVGID_00000091699708692983001320000013715504116273656202_);stroke-width:2.018;stroke-miterlimit:10;" d="
					M268.2,355.3c-10.4,0-20.9-0.7-29.9-1.4l-0.5,0l-0.5-0.1c-2.4-0.3-4.8-0.6-7-0.8c-7.6-0.8-15.5-1.7-24-5.7l-0.5-0.3l-0.5-0.3
					c-16.5-9.2-22.6-23-28.5-36.4c-0.8-1.9-1.7-3.9-2.6-5.8c-2-4-3.4-8.2-4.7-12.2l-0.1-0.2l-0.1-0.3c-4.9-17.6-3.7-26.5,5.6-40
					l0.3-0.4l0.3-0.4c1.1-1.4,2.1-2.7,3-3.9c4.5-5.9,8.3-10.9,17-18.9l0,0c0.6-0.6,1.1-1.4,1.3-2.2c0.2-0.9,0.2-1.7-0.1-2.6
					l-1.6-4.4c-0.3-1.4-0.5-2.8-0.7-4.3v0l-0.1-1.2l0-0.9c0.3-9.7,5.4-17.3,8.8-22.3c0.5-0.8,1-1.5,1.4-2.2l0.3-0.5l0.4-0.5
					c1.8-2.4,4.7-9.1,6.2-13.2c0.4-1.3,1.4-4.7,2.3-7.2c0.6-1.9,1-3.8,1.2-5.7c0.5-4.8,1.6-9.6,3.3-14.1l0.1-0.2l0.1-0.2
					c0.7-1.9,1.3-3.5,1.8-5c1.3-4,2.9-8.6,7.1-13.8l0.9-1l0.8-0.8c9.3-8.4,19.5-10.2,27.4-10.7h0.2h0.3c0.4,0,0.9,0,1.3,0
					c7.7,0,13.5,3.1,17.4,5.2l0.9,0.5l0.1,0.1c1.1,0.6,2,1.1,2.9,1.5c2.4,1.2,5.2,1.5,7.8,0.8c5.3-1.4,13.6-4.6,19.2-7.7l0.1-0.1
					c5.9-3.4,14.7-8.5,25.1-9.7c0.7-0.1,1.3-0.2,1.9-0.3c1.2-0.2,3.2-0.4,5.7-0.6c4.3-0.4,10.8-0.9,17.6-0.9
					c10.5,0,18.7,1.1,25.2,3.3l0.2,0.1l0.2,0.1c15.5,5.9,21.2,12,27.5,20.1c2.6,3.3,5,6.4,9.6,10.5l0.4,0.4l0.4,0.4
					c1.2,1.3,2.6,2.4,4,3.5c2.8,2.1,6.5,5.1,9.9,10.7l0.4,0.6l0.3,0.7c4.9,10,3.3,19.6,2.1,26.6l-0.1,0.6c-0.7,4.4-2,8.8-3.8,12.9
					c-1.1,2.4-1.8,4.9-2.2,7.4c-0.3,1.5-0.4,2.6-0.6,3.7l-0.1,0.8c-0.4,3.6-1.2,7.2-2.3,10.7c-1.8,5.6-4.5,10.9-8,15.6
					c-5.9,8.5-12.4,13.7-21.1,16.5c-4.2,1.3-7.7,4-10.1,7.7l-0.7,1.1l-0.8,0.9c-2.2,2.5-1.6,12.2-1.2,18.1c0.4,6.4,0.8,13-0.4,19.2
					c-2,10.6-6.5,17.8-10.6,24.1c0,0-15.1,21.8-28.7,25.9l-1,0.3l-1,0.2c-2.6,0.5-5.2,0.7-7.9,0.7c-0.6,0-1.2,0-1.8,0
					c-0.6,0-1.2,0-1.9,0c-0.9,0-2.4,0-4.7,0.2h-0.2h-0.2c-9.1,0.3-14.7,0.5-17.7,1.1c-2.1,0.4-4.1,1-6,1.8
					C295.9,353.6,284.5,355.3,268.2,355.3L268.2,355.3z"/>
			</g>
		</g>
	</g>
</g>
</svg>
